<?xml version="1.0" encoding="UTF-8" standalone="no"?>
<svg
   height="48"
   viewBox="0 96 960 960"
   width="48"
   version="1.1"
   id="svg4"
   sodipodi:docname="home.svg"
   inkscape:version="1.2.2 (732a01da63, 2022-12-09)"
   xmlns:inkscape="http://www.inkscape.org/namespaces/inkscape"
   xmlns:sodipodi="http://sodipodi.sourceforge.net/DTD/sodipodi-0.dtd"
   xmlns="http://www.w3.org/2000/svg"
   xmlns:svg="http://www.w3.org/2000/svg">
  <defs
     id="defs8" />
  <sodipodi:namedview
     id="namedview6"
     pagecolor="#505050"
     bordercolor="#ffffff"
     borderopacity="1"
     inkscape:showpageshadow="0"
     inkscape:pageopacity="0"
     inkscape:pagecheckerboard="1"
     inkscape:deskcolor="#505050"
     showgrid="false"
     inkscape:zoom="10.9375"
     inkscape:cx="23.954286"
     inkscape:cy="23.954286"
     inkscape:window-width="1366"
     inkscape:window-height="705"
     inkscape:window-x="-8"
     inkscape:window-y="-8"
     inkscape:window-maximized="1"
     inkscape:current-layer="svg4" />
  <path
     d="M160 936V535l-84 64-36-48 120-91V346h60v68l260-198 440 336-36 47-84-64v401H160Zm60-60h230V716h60v160h230V489L480 291 220 489v387Zm-60-580q0-46 32.5-78t77.5-32q21.25 0 35.625-15T320 136h60q0 45-32.083 77.5Q315.833 246 270 246q-20 0-35 14.375T220 296h-60Zm60 580h520-520Z"
     id="path2"
     style="fill:#ffffff" />
</svg>
